<?xml version="1.0" encoding="UTF-8"?><svg id="Layer_1" xmlns="http://www.w3.org/2000/svg" viewBox="0 0 140 18.6"><defs><style>.cls-1{fill:#6366f1;}</style></defs><path class="cls-1" d="M11.1,18.6c-4.2,0-6.8-1.3-8.3-2.5-1.8-1.4-2.8-3.3-2.8-5.2s1.6-3.9,3.9-3.9,3,.8,4.1,1.5c1.2,.8,2.4,1.6,4.7,1.6s4.6-1,5.5-1.8c1.1-.9,1.7-2.2,1.7-3.4s-.2-2.2-2.5-2.2-1.8,.4-2.7,.9c-1.2,.6-2.5,1.3-4.5,1.3s0,0,0,0c-4.1,0-6.3-1.4-6.4-1.5-.5-.3-.6-1-.3-1.5,.3-.5,1-.6,1.5-.3,0,0,1.9,1.1,5.3,1.1,1.5,0,2.5-.5,3.6-1.1,1.1-.6,2.2-1.2,3.7-1.2,2.7,0,4.6,1.8,4.6,4.4s-.9,3.6-2.4,5c-1.2,1.1-3.4,2.4-6.9,2.4s-4.5-1.1-5.8-1.9c-1-.6-1.8-1.2-3-1.2s-1.8,1.2-1.8,1.8c0,1.2,.7,2.5,2,3.5,1.2,.9,3.3,2,6.9,2s8.5-3.3,8.5-3.4c.4-.4,1.1-.4,1.5,0s.4,1.1,0,1.5c-.2,.2-4.2,4-10,4Z"/><g><path class="cls-1" d="M42.8,12.3h-10.2c0,1.1,.5,1.9,1.2,2.6,.7,.6,1.6,1,2.6,1,1.5,0,2.5-.6,3.2-1.9h3c-.4,1.2-1.1,2.2-2.2,3-1.1,.8-2.4,1.2-3.9,1.2s-2.4-.3-3.4-.9c-1-.6-1.8-1.4-2.4-2.4-.6-1-.9-2.3-.9-3.6s.3-2.6,.8-3.6c.6-1,1.3-1.8,2.4-2.4,1-.6,2.2-.8,3.5-.8s2.4,.3,3.4,.8c1,.6,1.8,1.3,2.3,2.3s.8,2.1,.8,3.4,0,1,0,1.4Zm-2.8-2.2c0-1-.4-1.8-1.1-2.5-.7-.6-1.6-.9-2.6-.9s-1.8,.3-2.5,.9c-.7,.6-1.1,1.4-1.2,2.5h7.4Z"/><path class="cls-1" d="M64.7,5c.8,.4,1.5,1.1,2,1.9,.5,.9,.7,1.9,.7,3.1v7.9h-2.7v-7.5c0-1.2-.3-2.1-.9-2.8-.6-.6-1.4-1-2.5-1s-1.9,.3-2.5,1c-.6,.6-.9,1.6-.9,2.8v7.5h-2.7v-7.5c0-1.2-.3-2.1-.9-2.8-.6-.6-1.4-1-2.5-1s-1.9,.3-2.5,1c-.6,.6-.9,1.6-.9,2.8v7.5h-2.8V4.6h2.8v1.5c.5-.6,1-1,1.7-1.3,.7-.3,1.4-.5,2.2-.5s2,.2,2.9,.7c.8,.5,1.5,1.1,1.9,2,.4-.8,1-1.5,1.9-1.9,.9-.5,1.8-.7,2.8-.7s2,.2,2.8,.7Z"/><path class="cls-1" d="M75.6,5c.8-.4,1.7-.6,2.7-.6s2.3,.3,3.2,.8c1,.6,1.7,1.4,2.3,2.4,.6,1,.8,2.2,.8,3.6s-.3,2.5-.8,3.6c-.6,1.1-1.3,1.9-2.3,2.5s-2,.9-3.2,.9-2-.2-2.8-.6c-.8-.4-1.4-.9-1.9-1.6v1.9h-2.8V0h2.8V6.6c.5-.6,1.1-1.2,1.9-1.6Zm5.6,3.8c-.4-.7-.9-1.2-1.5-1.5-.6-.3-1.3-.5-2-.5s-1.4,.2-2,.5c-.6,.4-1.1,.9-1.5,1.6s-.6,1.5-.6,2.4,.2,1.7,.6,2.4c.4,.7,.9,1.2,1.5,1.6,.6,.4,1.3,.5,2,.5s1.4-.2,2-.5c.6-.4,1.1-.9,1.5-1.6,.4-.7,.6-1.5,.6-2.4s-.2-1.7-.6-2.4Z"/><path class="cls-1" d="M91.7,4.9c.7-.4,1.5-.6,2.4-.6v2.9h-.7c-1.1,0-1.9,.3-2.5,.8-.6,.6-.8,1.5-.8,2.9v7h-2.8V4.6h2.8v1.9c.4-.7,.9-1.2,1.6-1.6Z"/><path class="cls-1" d="M96.6,7.7c.6-1,1.3-1.8,2.3-2.4s2-.9,3.2-.9,2,.2,2.8,.6c.8,.4,1.4,.9,1.9,1.5v-1.9h2.8v13.4h-2.8v-2c-.5,.6-1.1,1.2-1.9,1.6-.8,.4-1.7,.6-2.8,.6s-2.2-.3-3.2-.9-1.7-1.4-2.3-2.5c-.6-1.1-.8-2.3-.8-3.6s.3-2.5,.8-3.6Zm9.5,1.2c-.4-.7-.9-1.2-1.5-1.6-.6-.4-1.3-.5-2-.5s-1.4,.2-2,.5c-.6,.3-1.1,.9-1.5,1.5-.4,.7-.6,1.5-.6,2.4s.2,1.7,.6,2.4c.4,.7,.9,1.2,1.5,1.6,.6,.4,1.3,.5,2,.5s1.4-.2,2-.5c.6-.4,1.1-.9,1.5-1.6,.4-.7,.6-1.5,.6-2.4s-.2-1.7-.6-2.4Z"/><path class="cls-1" d="M113.1,7.6c.6-1,1.3-1.8,2.3-2.4,1-.6,2.1-.8,3.4-.8s3,.4,4,1.2,1.8,1.9,2.1,3.3h-3c-.2-.7-.6-1.2-1.2-1.6-.5-.4-1.2-.6-2-.6s-2,.4-2.7,1.2c-.7,.8-1,1.9-1,3.4s.3,2.6,1,3.4c.7,.8,1.6,1.2,2.7,1.2s2.7-.7,3.2-2.1h3c-.4,1.4-1.1,2.4-2.2,3.2-1.1,.8-2.4,1.2-4,1.2s-2.4-.3-3.4-.9c-1-.6-1.8-1.4-2.3-2.4s-.8-2.3-.8-3.6,.3-2.6,.8-3.6Z"/><path class="cls-1" d="M139.9,12.3h-10.2c0,1.1,.5,1.9,1.2,2.6,.7,.6,1.6,1,2.6,1,1.5,0,2.5-.6,3.2-1.9h3c-.4,1.2-1.1,2.2-2.2,3-1.1,.8-2.4,1.2-3.9,1.2s-2.4-.3-3.4-.9c-1-.6-1.8-1.4-2.4-2.4-.6-1-.9-2.3-.9-3.6s.3-2.6,.8-3.6c.6-1,1.3-1.8,2.4-2.4,1-.6,2.2-.8,3.5-.8s2.4,.3,3.4,.8c1,.6,1.8,1.3,2.3,2.3s.8,2.1,.8,3.4,0,1,0,1.4Zm-2.8-2.2c0-1-.4-1.8-1.1-2.5-.7-.6-1.6-.9-2.6-.9s-1.8,.3-2.5,.9c-.7,.6-1.1,1.4-1.2,2.5h7.4Z"/></g></svg>